<svg width="1600" height="900" viewBox="0 0 1600 900" fill="none" xmlns="http://www.w3.org/2000/svg">
  <rect width="1600" height="900" fill="#153049"/>
  <rect width="1600" height="900" fill="url(#bg)"/>
  <circle cx="1260" cy="180" r="88" fill="#F0CE84"/>
  <path d="M0 710C167 660 310 652 439 670C590 691 709 763 853 768C998 773 1100 715 1224 687C1340 661 1457 669 1600 726V900H0V710Z" fill="#0F2238"/>
  <path d="M190 232H730V658C730 704 709 744 665 777L463 870L261 777C217 744 190 704 190 658V232Z" fill="#F7F4ED" fill-opacity="0.94"/>
  <path d="M463 316L602 370V514C602 588 553 648 463 689C373 648 324 588 324 514V370L463 316Z" fill="#17314F"/>
  <path d="M407 506L448 548L528 460" stroke="#F2D088" stroke-width="28" stroke-linecap="round" stroke-linejoin="round"/>
  <rect x="826" y="286" width="470" height="22" rx="11" fill="#FFFFFF" fill-opacity="0.24"/>
  <rect x="826" y="338" width="392" height="18" rx="9" fill="#FFFFFF" fill-opacity="0.18"/>
  <rect x="826" y="388" width="448" height="18" rx="9" fill="#FFFFFF" fill-opacity="0.18"/>
  <rect x="826" y="474" width="382" height="146" rx="28" fill="#FFFFFF" fill-opacity="0.1" stroke="#FFFFFF" stroke-opacity="0.22"/>
  <text x="864" y="533" fill="#FFFFFF" font-family="Inter, Arial, sans-serif" font-size="30" font-weight="700">Professional Conduct</text>
  <text x="864" y="575" fill="#D9E2EA" font-family="Inter, Arial, sans-serif" font-size="23">Respectful service, clear communication,</text>
  <text x="864" y="608" fill="#D9E2EA" font-family="Inter, Arial, sans-serif" font-size="23">and accountability for client matters.</text>
  <defs>
    <linearGradient id="bg" x1="160" y1="64" x2="1411" y2="823" gradientUnits="userSpaceOnUse">
      <stop stop-color="#17314F"/>
      <stop offset="0.58" stop-color="#325C7E"/>
      <stop offset="1" stop-color="#C8A260"/>
    </linearGradient>
  </defs>
</svg>
