<svg width="1600" height="900" viewBox="0 0 1600 900" fill="none" xmlns="http://www.w3.org/2000/svg">
  <rect width="1600" height="900" fill="#16314B"/>
  <rect width="1600" height="900" fill="url(#bg)"/>
  <circle cx="1272" cy="174" r="90" fill="#F2D087"/>
  <path d="M0 700C131 653 267 643 394 660C522 678 635 742 770 747C912 752 1020 695 1158 664C1295 633 1426 646 1600 714V900H0V700Z" fill="#0F2238"/>
  <rect x="204" y="192" width="1190" height="500" rx="34" fill="#F8F6F1" fill-opacity="0.94"/>
  <rect x="264" y="252" width="428" height="380" rx="26" fill="#E5EDF4"/>
  <path d="M310 545C377 497 445 476 526 487C591 496 642 528 692 580V632H264V580C280 567 295 556 310 545Z" fill="#2D5978"/>
  <circle cx="1022" cy="372" r="92" fill="#17314F"/>
  <path d="M957 373L998 414L1088 327" stroke="#F2D087" stroke-width="28" stroke-linecap="round" stroke-linejoin="round"/>
  <rect x="790" y="264" width="424" height="20" rx="10" fill="#17314F" fill-opacity="0.14"/>
  <rect x="790" y="313" width="354" height="16" rx="8" fill="#17314F" fill-opacity="0.1"/>
  <rect x="790" y="354" width="398" height="16" rx="8" fill="#17314F" fill-opacity="0.1"/>
  <rect x="790" y="475" width="488" height="92" rx="26" fill="#17314F"/>
  <text x="832" y="531" fill="#FFFFFF" font-family="Inter, Arial, sans-serif" font-size="29" font-weight="700">Experience-led Guidance</text>
  <text x="832" y="613" fill="#17314F" font-family="Inter, Arial, sans-serif" font-size="26" font-weight="700">Clear review, careful advice, steady support</text>
  <text x="832" y="649" fill="#5A6F82" font-family="Inter, Arial, sans-serif" font-size="22">Built for migration planning and long-term pathway decisions</text>
  <defs>
    <linearGradient id="bg" x1="152" y1="83" x2="1430" y2="816" gradientUnits="userSpaceOnUse">
      <stop stop-color="#17314F"/>
      <stop offset="0.58" stop-color="#3A6688"/>
      <stop offset="1" stop-color="#C8A260"/>
    </linearGradient>
  </defs>
</svg>
